<svg width="32" height="32" viewBox="0 0 32 32" fill="none" xmlns="http://www.w3.org/2000/svg">
<g clip-path="url(#clip0_7_2)">
<rect width="32" height="32" rx="16" fill="#F2F2F4"/>
<path d="M7.61038 21.056C7.61038 21.7707 7.23704 22.128 6.49038 22.128C6.12771 22.128 5.83971 22.0373 5.62638 21.856C5.41304 21.6747 5.30638 21.408 5.30638 21.056V14.224C5.30638 13.0293 5.62104 12.1333 6.25038 11.536C6.87971 10.928 7.93571 10.624 9.41838 10.624C10.517 10.624 11.3757 10.9173 11.9944 11.504C12.6237 12.0907 12.9384 13.0347 12.9384 14.336C12.9384 15.4667 12.6397 16.3307 12.0424 16.928C11.4557 17.5253 10.6237 17.824 9.54638 17.824C8.93838 17.824 8.49571 17.872 8.21838 17.968C7.95171 18.0533 7.78104 18.2187 7.70638 18.464C7.64238 18.6987 7.61038 19.0453 7.61038 19.504V21.056ZM7.46638 16.432C7.59438 16.3253 7.71704 16.2347 7.83438 16.16C7.95171 16.0747 8.10638 16.0107 8.29838 15.968C8.50104 15.9147 8.76771 15.888 9.09838 15.888C9.55704 15.888 9.91971 15.8507 10.1864 15.776C10.453 15.6907 10.6397 15.536 10.7464 15.312C10.8637 15.088 10.9224 14.7627 10.9224 14.336C10.9224 13.7707 10.853 13.36 10.7144 13.104C10.5864 12.8373 10.3997 12.6667 10.1544 12.592C9.91971 12.5067 9.63171 12.464 9.29038 12.464C8.67171 12.464 8.23438 12.576 7.97838 12.8C7.73304 13.024 7.61038 13.4133 7.61038 13.968C7.61038 14.3627 7.59971 14.7947 7.57838 15.264C7.55704 15.7333 7.51971 16.1227 7.46638 16.432ZM16.6416 21.056C16.6416 21.7707 16.2683 22.128 15.5216 22.128C15.159 22.128 14.871 22.0373 14.6576 21.856C14.4443 21.6747 14.3376 21.408 14.3376 21.056V14.448C14.3376 13.1893 14.6043 12.24 15.1376 11.6C15.6816 10.9493 16.4816 10.624 17.5376 10.624C18.3163 10.624 18.9616 10.784 19.4736 11.104C19.9856 11.424 20.327 11.8827 20.4976 12.48C20.6683 11.8827 21.0096 11.424 21.5216 11.104C22.0336 10.784 22.6896 10.624 23.4896 10.624C24.5776 10.624 25.383 10.9387 25.9056 11.568C26.4283 12.1867 26.6896 13.1467 26.6896 14.448V20.896C26.6896 21.3333 26.6043 21.648 26.4336 21.84C26.263 22.032 25.975 22.128 25.5696 22.128C25.1643 22.128 24.8656 22.032 24.6736 21.84C24.4816 21.6373 24.3856 21.3227 24.3856 20.896V14.32C24.3856 13.264 23.9323 12.736 23.0256 12.736C22.567 12.736 22.2256 12.8907 22.0016 13.2C21.7776 13.4987 21.6656 13.9787 21.6656 14.64V20.736C21.6656 21.1733 21.5803 21.488 21.4096 21.68C21.239 21.872 20.951 21.968 20.5456 21.968C20.1403 21.968 19.8416 21.872 19.6496 21.68C19.4576 21.4773 19.3616 21.1627 19.3616 20.736V14.64C19.3616 13.3707 18.9083 12.736 18.0016 12.736C17.095 12.736 16.6416 13.264 16.6416 14.32V21.056Z" fill="black"/>
</g>
<defs>
<clipPath id="clip0_7_2">
<rect width="32" height="32" rx="16" fill="white"/>
</clipPath>
</defs>
</svg>
